<?xml version="1.0" encoding="UTF-8"?>
<svg id="Layer_1" data-name="Layer 1" xmlns="http://www.w3.org/2000/svg" viewBox="0 0 94.19 101.9">
  <path d="M85.25,73.95c-4.02-8.37-1.33-22.34-2.04-31.89-.34-4.55-1.3-8.69-2.74-12.42-.89-2.28-1.02-4.79-.32-7.14l6.45-21.46c.19-.62-.39-1.19-1-1.01l-24.33,7.31c-1.83.55-3.77.63-5.62.16-2-.51-4.05-.84-6.11-.99-.81-.06-1.62-.1-2.43-.11-.81,0-1.62.04-2.43.11C28.17,7.77,12.62,20.39,10.99,42.06c-.71,9.54,1.98,23.52-2.04,31.89-3.33,6.93-15.56,15.18-4.25,22.03,4.57,2.77,14.21,4.5,25.43,5.33,4.66.35,9.59.53,14.55.58,1.62.01,3.23.01,4.85,0,4.96-.04,9.89-.23,14.55-.58,11.22-.83,20.86-2.56,25.43-5.33,11.31-6.86-.92-15.1-4.25-22.03ZM76.91,88.44c-3.5.89-8.08,1.48-13.12,1.85-4.53.32-9.44.48-14.27.5h0s-.63,0-.63,0c-.51,0-1.02,0-1.52,0h-.55c-.51,0-1.02,0-1.52,0h-.63c-4.83-.03-9.73-.18-14.27-.51-5.04-.37-9.62-.96-13.12-1.85-5.73-1.46,1.16-7.74,2.71-11.39,7.55-17.8-5.44-40.86,12.71-54.44,3.75-2.81,7.86-4.38,11.97-4.79h0c.71-.06,1.44-.09,2.15-.08h.55c.71,0,1.44.02,2.15.08h0c4.11.42,8.22,1.99,11.97,4.79,18.14,13.57,5.15,36.63,12.71,54.44,1.55,3.65,8.44,9.93,2.71,11.39Z"/>
</svg>